<?xml version="1.0" standalone="no"?>
<!DOCTYPE svg PUBLIC "-//W3C//DTD SVG 20010904//EN"
 "http://www.w3.org/TR/2001/REC-SVG-20010904/DTD/svg10.dtd">
<svg version="1.0" xmlns="http://www.w3.org/2000/svg"
 width="560.000000pt" height="256.000000pt" viewBox="0 0 560.000000 256.000000"
 preserveAspectRatio="xMidYMid meet">

<g transform="translate(0.000000,256.000000) scale(0.100000,-0.100000)"
fill="#000000" stroke="none">
<path d="M490 2205 c-256 -90 -469 -166 -475 -168 -5 -2 25 -15 69 -30 68 -23
81 -25 99 -13 14 9 145 26 357 46 314 30 337 34 363 56 58 49 141 13 141 -61
0 -69 -71 -106 -134 -68 -26 15 -45 14 -306 -11 -153 -15 -280 -28 -281 -29
-1 -2 36 -16 83 -31 46 -16 84 -32 84 -35 0 -3 -16 -129 -34 -280 -19 -151
-32 -280 -29 -288 10 -25 214 -68 396 -84 102 -8 171 -8 270 0 183 16 390 59
400 84 2 7 -10 129 -29 272 -18 143 -33 269 -34 281 0 18 29 31 240 104 132
45 239 84 237 86 -2 3 -895 314 -937 327 -8 3 -224 -69 -480 -158z"/>
<path d="M423 1108 c8 -13 18 -62 22 -111 6 -74 4 -91 -9 -106 -16 -18 -14
-18 36 -9 77 14 98 30 98 77 0 23 -6 44 -15 51 -11 9 -13 16 -5 24 16 16 12
64 -7 74 -10 5 -44 13 -76 17 l-59 7 15 -24z m82 -43 c0 -10 -6 -20 -12 -22
-8 -3 -13 5 -13 22 0 17 5 25 13 23 6 -3 12 -13 12 -23z m-1 -84 c3 -4 -1 -17
-9 -27 -14 -18 -14 -18 -15 9 0 26 13 36 24 18z"/>
<path d="M1265 1109 c-22 -10 -34 -19 -27 -19 11 0 13 -23 10 -110 -3 -114 -3
-115 40 -104 15 4 19 10 14 18 -5 6 -5 52 0 106 12 131 12 131 -37 109z"/>
<path d="M1675 1123 c-81 -9 -96 -14 -87 -26 6 -7 13 -52 17 -100 7 -79 6 -89
-11 -102 -17 -13 -14 -14 32 -15 28 0 66 -3 83 -6 l31 -6 -1 48 c0 41 -2 45
-10 25 -8 -19 -14 -22 -37 -16 -35 9 -34 8 -26 40 5 20 11 25 25 22 16 -4 19
1 19 29 0 32 -2 34 -20 24 -18 -9 -20 -8 -20 16 0 24 3 26 30 22 27 -4 30 -2
30 24 0 16 -5 27 -12 27 -7 -1 -26 -4 -43 -6z"/>
<path d="M1915 1113 c2 -10 6 -33 9 -52 6 -33 5 -33 -12 -18 -28 25 -41 21
-58 -18 -33 -80 -4 -138 75 -149 39 -6 43 -5 31 9 -9 11 -11 45 -8 125 2 61 1
110 -3 110 -4 0 -14 3 -22 6 -11 4 -14 0 -12 -13z m5 -134 c0 -11 -4 -19 -9
-19 -10 0 -21 24 -21 47 0 13 3 13 15 3 8 -7 15 -21 15 -31z"/>
<path d="M2763 1123 c-14 -3 -20 -9 -16 -19 9 -24 -6 -66 -22 -60 -11 4 -15
-3 -15 -30 0 -21 4 -33 10 -29 6 4 10 -10 10 -34 0 -59 39 -90 73 -56 8 8 17
11 21 8 3 -4 6 8 6 27 0 27 -2 31 -15 20 -20 -17 -35 -4 -35 32 0 25 3 29 20
25 17 -4 20 0 20 24 0 21 -4 27 -15 23 -11 -5 -15 1 -15 23 0 16 5 34 12 41
13 13 6 14 -39 5z"/>
<path d="M684 1105 c-9 -22 9 -37 37 -33 16 2 24 10 24 23 0 26 -52 35 -61 10z"/>
<path d="M870 1105 c-14 -8 -19 -14 -12 -15 9 0 12 -26 12 -98 0 -65 -4 -103
-12 -111 -11 -11 -10 -13 5 -7 10 3 28 6 40 6 14 0 18 3 11 10 -6 6 -7 40 -2
87 13 153 11 159 -42 128z"/>
<path d="M2941 1106 c-16 -19 12 -40 44 -32 28 7 33 31 9 40 -25 9 -41 7 -53
-8z"/>
<path d="M705 1053 c-17 -3 -20 -10 -17 -36 2 -18 -1 -56 -6 -85 l-9 -52 46 0
c25 0 41 4 35 8 -17 11 -28 140 -14 157 13 16 9 17 -35 8z"/>
<path d="M1046 1041 c-38 -42 -28 -143 16 -157 28 -9 78 15 78 37 0 16 -3 17
-19 8 -10 -7 -27 -9 -37 -5 -17 7 -15 9 14 21 28 13 32 18 32 54 0 30 -5 43
-19 51 -28 15 -46 12 -65 -9z m34 -30 c0 -22 -15 -35 -30 -26 -7 4 -7 13 0 26
14 25 30 25 30 0z"/>
<path d="M2094 1052 c-19 -12 -36 -82 -29 -118 13 -73 94 -69 116 4 9 33 9 45
-4 70 -9 19 -11 34 -5 40 6 6 1 8 -14 5 -18 -3 -23 -11 -23 -35 0 -17 -6 -33
-14 -36 -10 -3 -12 5 -9 37 4 42 1 46 -18 33z"/>
<path d="M2304 1034 c-24 -36 -24 -107 0 -133 22 -25 49 -27 66 -6 7 8 16 12
21 9 10 -6 12 7 3 30 -3 8 -11 13 -19 10 -7 -3 -15 2 -18 10 -9 23 3 48 19 42
21 -8 18 34 -3 50 -27 21 -51 17 -69 -12z"/>
<path d="M2511 1042 c-20 -37 -23 -88 -7 -125 17 -41 30 -45 58 -20 17 15 18
15 18 -1 0 -10 6 -16 13 -13 8 3 12 29 12 87 0 58 -4 85 -12 88 -7 2 -13 -4
-13 -13 0 -15 -1 -15 -16 -1 -20 21 -41 20 -53 -2z m59 -51 c7 -14 7 -22 -1
-27 -12 -7 -29 12 -29 34 0 19 18 14 30 -7z"/>
<path d="M2956 1053 c-16 -3 -24 -8 -18 -12 7 -4 9 -30 3 -84 l-7 -77 46 0
c25 0 40 4 33 8 -7 4 -16 41 -19 81 -6 57 -4 75 7 82 16 10 10 10 -45 2z"/>
<path d="M3131 1034 c-37 -47 -21 -139 25 -150 30 -8 43 1 61 43 23 57 -4 133
-48 133 -10 0 -27 -12 -38 -26z m31 -46 c-6 -6 -15 -7 -22 -3 -8 5 -6 13 7 27
16 18 18 19 21 3 2 -9 -1 -22 -6 -27z"/>
<path d="M3340 1052 c-12 -5 -15 -26 -15 -93 0 -84 0 -85 23 -81 19 4 22 9 18
31 -3 14 -1 33 4 41 9 13 11 13 20 0 6 -8 8 -27 6 -42 -5 -25 -2 -28 21 -28
20 0 24 3 15 12 -8 8 -8 17 -1 30 6 10 9 42 7 70 -4 63 -25 83 -58 53 -18 -16
-20 -16 -14 -2 6 18 -1 20 -26 9z"/>
</g>
</svg>
